<svg xmlns="http://www.w3.org/2000/svg" viewBox="0 0 864.93 511.56"><g id="Layer_2" data-name="Layer 2"><g id="Layer_2-2" data-name="Layer 2"><path d="M864.72,422.26c-1.56-57.76-5-46.81-5-73.83,0-10.81.59-20.91-6.19-29.93a32.62,32.62,0,0,0-12.39-9.81c-17.79-8.35-37,1.45-38.19,2.07-9.7,5.12-13,11.71-32.52,48.51-16.68,31.5-22.43,42.12-24.77,41.29-.65-.22-1.44-1.46,1-20.76,3-23.18,4.44-34.77,6.2-42.72,2.3-10.38,4-15.31,1.55-21.68-2.89-7.41-9.33-11.28-11.36-12.38-11.82-6.42-28.33-5.58-36.12,3.09A20.34,20.34,0,0,0,703.1,313c-4.87,12.38-12,23.78-17.22,36-15.28,35.51-16.62,37.92-17.61,37.68-2.9-.7-1.09-23.26,1.54-51.1,2-20.71,3.45-27.83-1.54-34.06-8.47-10.59-29-12.89-37.68-4.65-4.19,4-4.13,9-5.49,19-1.86,13.85-6.62,27.16-9.48,40.84-7.33,35-29.45,75.7-36.13,73.81-4.88-1.38-4-27.65,0-44.9,1.55-6.68,2.61-13.45,4.13-20.13,2.44-10.74,3.51-13.78,2.07-18.07-3-8.86-13.13-12.14-13.94-12.38-11.15-3.43-24.81,2-26.32,8.77a7.35,7.35,0,0,0,.13,3.23c1.16,6.4,0,11.79-2.2,22.58a135.62,135.62,0,0,1-7.29,23.29c-11.93,30.34-17.9,45.52-21.61,44.83-2.45-.44-3.29-6.38-4.9-17.74a78.15,78.15,0,0,1-.78-21c1-8.7,3.13-10.18,7.74-23.75,6-17.52,7.2-29,8.52-41.42,1.18-11,.53-13.38-.77-15.35-5.86-8.88-25.1-10.2-36.13-2.07-8,5.88-9.55,16.21-12.39,36.65-2.45,17.61.55,18.38-2.06,30.45-3.68,17-12.08,28.17-19.49,38.07-9.35,12.48-17.15,22.89-24.39,21.29-6.21-1.38-8.86-10.9-12.51-24-2.19-7.84-5.56-20.45-3-36.39.87-5.36,1.69-6.65,6.58-21.68,0,0,3.54-10.87,9.82-32,7.31-24.34,11.38-50.7,16.63-75.32,5.35-25.05,24.18-111.14,11.87-134.71-.85-1.64-3.43-6.58-8.77-8.78-6.65-2.73-15.58-.37-20.13,5.16-1.85,2.26-2.39,4.33-3.61,9.29-3.29,13.36-4.93,20-5.16,21.68-2,13.73-7.81,31.06-18.58,79-12.72,56.51-19.07,84.76-19.1,102.71,0,18.15,1.91,29.37-3.1,48-4.94,18.35-13.14,30.94-24.26,48-14.55,22.34-24,36.86-32.51,35.1-9.91-2.07-13-25.17-13.94-33.55,13.71-31.62,22.62-56.47,26.32-69.16C338,350.76,339,344,341,330.37c.72-4.76,1-7.48,0-10.84-2.05-6.57-8.57-13.07-16-13.93-9.75-1.14-13.57,8.28-21.68,6.19-5.87-1.51-5.57-6.9-12.38-11.36-9.07-5.92-20.43-3.45-26.84-2.06-17,3.7-27.61,14.89-31.49,19.1-18.59,20.17-20.59,45.62-22.19,66.06a177.08,177.08,0,0,0,3.61,51.61,93.59,93.59,0,0,1-43.87,20.65c-22.77,3.9-40.6-2.28-55.74-7.74-12.42-4.48-41.29-14.65-63-41.81-24.23-30.36-26.26-63.38-28.39-98.06-2.62-42.82,5.65-75.38,10.33-93.42,14.27-55.1,39-91.53,47-102.71C104.63,78,122.93,52.26,157.3,41.85c30.37-9.19,79.79-8.39,101.16,23.23,23.19,34.32-2.58,81.44-13.94,102.19-10.17,18.6-25.14,47.43-52.64,50.58-14.47,1.66-31.49-3.84-41.94-15.8-10.59-12.14-11.61-27.72-12.32-38.65a89.25,89.25,0,0,1,1.1-20.9,6.2,6.2,0,0,0-4.45.47,5.38,5.38,0,0,0-1.77,1.64c-2.86,4-2,10.92-2,10.92,1.45,11.31-2,12,.07,27.16.65,4.8,2.16,15.95,7.1,25.87,9.68,19.49,34.21,37.69,58.83,34.58,13.74-1.73,22.5-9.46,34.58-20.12,22-19.41,32.08-41.15,38.2-54.71,7.26-16.11,18-40.62,17.55-73.81-.3-21.11-.63-45-17.55-65.55C244.43-1.22,203.47-.12,197,.05,166.78.86,145,16,126.33,29A194.93,194.93,0,0,0,92.27,59.4C74.65,78.71,65.08,95.83,53,117.72c-8.34,15.17-19,34.73-28.9,62.46C10.62,218,6.5,248.6,4,267.92,1.07,290.68-.87,305.79.39,326.76c1.23,20.31,3.12,51.51,22.2,85.16,19.62,34.6,46.51,52.56,60.9,61.93,14.58,9.5,32.8,21.09,59.36,24.78a124.38,124.38,0,0,0,47.48-2.58c8.91-2.37,16-4.24,24.36-9.29,10.39-6.26,12.12-10.95,19-11.36,9.42-.56,12,8.63,22.09,7.28,6.67-.89,11.75-4.61,16.1-7.79,10.3-7.55,12.51-14.31,16-13.42,3.31.84,2.23,7.15,6.79,17.35,1.89,4.21,5.57,12.44,13.34,17.74a32.73,32.73,0,0,0,25.29,4.65c8.58-2,15.35-10.13,28.9-26.32,9.92-11.86,14.88-17.79,18.07-24.78,2.26-5,3.55-9.3,5.67-9.29,3.31,0,4.07,10.61,8.78,21.68,1.37,3.23,12.53,29.46,32.51,32.52,13,2,24.6-6.55,30.46-10.84,6.93-5.08,12.9-9.46,17-17.55,1.66-3.26,2.46-6,4.14-6.08,3-.12,4.44,8.42,11.34,21.56,4,7.56,6,11.38,9.81,13.42,8.06,4.35,17.92,0,20.13-1,7.69-3.43,12.27-9.43,16.51-15,6.85-8.95,8.15-14.78,10.84-14.45s2.37,6.93,7.74,17c3,5.6,6.59,12.38,12.91,13.94,1.32.32,5.13,1,13.42-3.62,8.6-4.78,14.67-11.18,22.71-21.67,11.65-15.24,14.58-22.33,17-21.58,3.46,1.07-2.08,15.93,3.14,35,.82,3,7.47,26.34,19.62,27.35,7.19.6,13.21-6.88,20.13-15.48,7-8.76,9.92-15.6,17.55-31.49,13.86-28.87,16.1-30.73,17.54-30.45,4.88,1-1.06,26.26,13.42,50.58,4.71,7.9,8.92,11.25,13.42,11.87,7.43,1,14-5.56,17.55-9.29,20.81-22.12,35.65-53.08,41.81-65.55,11-22.29,25.85-52.35,31.48-50.58,2.48.79,1.64,7.24,1.55,32.52-.13,35.57,1.46,43.06,3.1,48.52,3.79,12.65,13.49,33.21,23.22,32.51,10.53-.75,17.65-26.13,19.61-41.29C865,438.92,865.08,435.54,864.72,422.26ZM244.2,404.69c-.73-.28-.34-1.31,0-18,.23-11.26.13-14.42,2.13-19a28.94,28.94,0,0,1,7.55-10.06c4.85-4.16,14-9.24,17-6.77C278.12,356.83,249.48,406.75,244.2,404.69Z"/></g></g></svg>